<svg id="svg" version="1.1" xmlns="http://www.w3.org/2000/svg" xmlns:xlink="http://www.w3.org/1999/xlink" width="400" height="399.91091314031183" viewBox="0, 0, 400,399.91091314031183"><g id="svgg"><path id="path0" d="M190.083 0.187 C 185.392 0.400,176.563 1.235,172.000 1.897 C 165.952 2.775,160.709 3.748,154.917 5.067 C 151.322 5.885,143.231 8.021,142.583 8.322 C 142.400 8.407,141.425 8.710,140.417 8.996 C 139.408 9.281,138.433 9.585,138.250 9.670 C 138.067 9.755,137.167 10.056,136.250 10.338 C 135.333 10.620,134.433 10.922,134.250 11.010 C 134.067 11.097,133.167 11.426,132.250 11.741 C 129.732 12.606,126.462 13.852,124.333 14.758 C 123.829 14.973,122.404 15.572,121.167 16.090 C 119.929 16.608,118.767 17.124,118.583 17.236 C 118.400 17.349,117.912 17.573,117.500 17.735 C 115.786 18.406,105.380 23.531,105.167 23.808 C 105.121 23.868,104.633 24.152,104.083 24.439 C 102.788 25.115,100.805 26.218,99.750 26.847 C 99.292 27.120,98.804 27.392,98.667 27.452 C 98.529 27.511,98.379 27.609,98.333 27.671 C 98.287 27.732,97.912 27.972,97.500 28.203 C 96.611 28.701,94.321 30.104,92.917 31.010 C 92.367 31.365,91.467 31.929,90.917 32.263 C 90.367 32.597,89.879 32.923,89.833 32.988 C 89.787 33.053,89.300 33.388,88.750 33.732 C 88.200 34.076,87.095 34.821,86.294 35.387 C 85.494 35.953,84.406 36.717,83.878 37.083 C 80.927 39.130,74.371 44.203,71.518 46.646 C 70.729 47.322,69.678 48.222,69.182 48.646 C 62.692 54.194,55.041 61.847,48.742 69.091 C 46.377 71.810,46.060 72.188,44.407 74.250 C 42.915 76.110,42.720 76.356,41.824 77.500 C 41.358 78.096,40.888 78.696,40.780 78.834 C 40.591 79.074,39.159 81.009,38.433 82.005 C 37.480 83.312,35.350 86.331,34.833 87.107 C 34.512 87.589,33.833 88.606,33.324 89.367 C 31.459 92.152,29.880 94.623,28.926 96.250 C 28.389 97.167,27.825 98.104,27.673 98.333 C 27.520 98.563,26.995 99.462,26.505 100.333 C 26.016 101.204,25.333 102.404,24.989 103.000 C 22.734 106.897,18.929 114.649,16.195 120.917 C 15.367 122.816,14.045 126.051,13.915 126.500 C 13.848 126.729,13.645 127.248,13.464 127.652 C 12.941 128.817,11.129 133.828,10.324 136.333 C 10.045 137.204,9.748 138.067,9.665 138.250 C 9.473 138.675,8.084 143.282,7.555 145.250 C 7.103 146.932,7.088 146.985,6.955 147.333 C 6.763 147.836,5.189 154.291,4.923 155.667 C 4.772 156.446,4.580 157.271,4.495 157.500 C 4.411 157.729,4.069 159.379,3.736 161.167 C 3.403 162.954,3.064 164.754,2.983 165.167 C 2.427 167.986,1.441 175.289,0.992 179.917 C 0.422 185.783,0.362 186.628,0.153 191.651 C -0.319 202.965,0.393 217.610,1.911 227.833 C 2.630 232.679,4.170 241.357,4.499 242.417 C 4.584 242.692,4.913 244.079,5.229 245.500 C 5.879 248.417,6.873 252.285,7.733 255.250 C 8.952 259.451,9.502 261.262,9.656 261.583 C 9.744 261.767,10.048 262.667,10.332 263.583 C 10.615 264.500,10.950 265.475,11.075 265.750 C 11.200 266.025,11.416 266.625,11.555 267.083 C 11.914 268.271,14.429 274.875,14.918 275.917 C 15.047 276.192,15.429 277.092,15.767 277.917 C 16.374 279.400,17.604 282.169,18.800 284.745 C 20.239 287.846,24.162 295.471,25.090 296.970 C 25.185 297.124,25.504 297.700,25.799 298.250 C 26.094 298.800,26.408 299.362,26.495 299.500 C 26.583 299.637,27.342 300.912,28.182 302.333 C 30.171 305.698,30.815 306.717,33.430 310.644 C 35.997 314.498,36.096 314.639,38.917 318.508 C 39.467 319.262,40.067 320.087,40.250 320.341 C 40.723 320.996,43.109 324.036,44.233 325.417 C 44.755 326.058,45.422 326.881,45.716 327.245 C 46.010 327.609,46.550 328.251,46.917 328.672 C 47.283 329.093,47.996 329.917,48.500 330.503 C 53.677 336.521,60.772 343.784,66.000 348.418 C 66.596 348.946,67.424 349.687,67.840 350.064 C 68.257 350.441,68.962 351.050,69.408 351.417 C 70.248 352.107,70.898 352.661,72.067 353.678 C 72.771 354.291,75.750 356.699,76.898 357.584 C 77.255 357.859,77.855 358.324,78.232 358.618 C 78.608 358.912,79.667 359.698,80.583 360.365 C 81.500 361.032,82.356 361.679,82.485 361.804 C 82.614 361.928,83.027 362.222,83.402 362.456 C 83.777 362.691,84.121 362.935,84.167 362.999 C 84.212 363.063,85.075 363.667,86.083 364.343 C 87.092 365.018,87.992 365.636,88.083 365.715 C 88.250 365.859,91.630 368.072,93.343 369.159 C 93.842 369.475,95.037 370.204,96.000 370.778 C 96.962 371.352,97.825 371.882,97.917 371.957 C 98.259 372.234,102.324 374.500,102.478 374.500 C 102.567 374.500,102.664 374.561,102.694 374.636 C 102.882 375.095,117.084 382.166,120.167 383.335 C 120.487 383.456,120.825 383.610,120.917 383.676 C 121.008 383.742,121.608 384.001,122.250 384.253 C 122.892 384.504,123.717 384.842,124.083 385.003 C 124.758 385.299,127.834 386.508,130.583 387.557 C 132.598 388.325,138.517 390.314,141.500 391.224 C 149.074 393.534,154.133 394.755,164.750 396.834 C 169.263 397.718,178.110 398.805,186.083 399.457 C 190.940 399.853,209.324 399.849,214.083 399.449 C 220.689 398.895,226.942 398.205,229.500 397.748 C 230.279 397.609,232.079 397.311,233.500 397.086 C 238.291 396.327,245.273 394.847,250.667 393.446 C 252.695 392.920,253.986 392.552,258.917 391.096 C 263.264 389.812,272.544 386.486,275.917 385.003 C 276.283 384.842,277.108 384.504,277.750 384.253 C 278.392 384.001,278.992 383.739,279.083 383.670 C 279.175 383.601,279.749 383.348,280.360 383.107 C 280.970 382.866,281.843 382.481,282.300 382.251 C 282.758 382.021,283.184 381.833,283.247 381.833 C 283.602 381.833,297.052 375.000,297.333 374.677 C 297.379 374.624,297.829 374.364,298.333 374.099 C 299.375 373.552,301.047 372.584,301.667 372.170 C 301.896 372.016,302.571 371.612,303.167 371.272 C 303.762 370.931,304.700 370.358,305.250 369.999 C 305.800 369.640,306.400 369.273,306.583 369.184 C 306.942 369.010,311.423 366.098,312.250 365.501 C 312.525 365.303,313.387 364.697,314.167 364.154 C 314.946 363.612,315.658 363.108,315.750 363.035 C 315.842 362.962,316.292 362.647,316.750 362.333 C 317.208 362.020,317.658 361.701,317.750 361.625 C 317.842 361.548,318.929 360.729,320.167 359.804 C 322.858 357.792,326.742 354.707,328.583 353.118 C 329.317 352.485,330.286 351.656,330.738 351.275 C 331.189 350.895,331.718 350.433,331.913 350.250 C 332.108 350.067,332.526 349.702,332.842 349.440 C 333.891 348.570,337.120 345.550,339.750 342.980 C 344.023 338.803,348.391 334.170,351.523 330.491 C 354.184 327.364,355.576 325.677,356.258 324.750 C 356.527 324.383,356.794 324.046,356.849 324.000 C 357.154 323.749,358.584 321.878,361.752 317.583 C 364.408 313.982,368.415 307.984,370.824 304.000 C 371.406 303.037,372.003 302.063,372.150 301.835 C 372.297 301.607,372.679 300.952,373.000 300.380 C 373.321 299.808,374.309 298.045,375.196 296.462 C 378.356 290.823,382.145 282.997,384.619 277.000 C 385.531 274.790,386.487 272.375,387.029 270.917 C 387.301 270.183,387.593 269.433,387.677 269.250 C 388.036 268.468,389.814 263.218,391.035 259.333 C 392.418 254.930,394.270 247.987,395.063 244.229 C 395.295 243.132,395.529 242.118,395.584 241.976 C 395.749 241.546,396.816 235.802,397.421 232.083 C 398.328 226.515,398.837 222.190,399.501 214.417 C 400.135 206.993,400.137 193.142,399.505 185.417 C 399.108 180.564,398.279 172.879,397.987 171.333 C 397.892 170.829,397.595 169.029,397.328 167.333 C 396.756 163.700,395.771 158.615,394.939 155.000 C 394.079 151.258,391.957 143.205,391.669 142.583 C 391.584 142.400,391.430 141.912,391.328 141.500 C 391.077 140.488,387.826 130.793,387.667 130.583 C 387.598 130.492,387.485 130.229,387.416 130.000 C 387.134 129.055,384.733 123.020,383.835 121.000 C 381.738 116.279,380.491 113.598,379.263 111.167 C 377.967 108.602,376.186 105.172,375.629 104.167 C 375.400 103.754,374.930 102.892,374.583 102.250 C 374.237 101.608,373.785 100.821,373.578 100.500 C 373.371 100.179,373.010 99.579,372.776 99.167 C 371.764 97.387,370.944 96.016,370.333 95.083 C 369.973 94.533,369.624 93.971,369.559 93.833 C 369.445 93.595,366.558 89.118,366.066 88.417 C 365.938 88.233,365.560 87.671,365.228 87.167 C 364.895 86.662,364.576 86.212,364.520 86.167 C 364.463 86.121,364.010 85.483,363.514 84.750 C 362.646 83.469,357.838 77.019,356.880 75.851 C 356.335 75.187,354.994 73.526,354.167 72.491 C 350.261 67.605,340.878 57.721,335.667 53.003 C 334.521 51.965,333.246 50.809,332.833 50.432 C 330.386 48.201,324.940 43.680,322.167 41.579 C 321.571 41.128,321.008 40.700,320.917 40.628 C 320.825 40.556,320.150 40.051,319.417 39.505 C 318.683 38.960,317.821 38.316,317.500 38.074 C 317.179 37.832,316.279 37.192,315.500 36.651 C 314.721 36.110,314.002 35.602,313.904 35.521 C 313.805 35.440,313.392 35.166,312.987 34.912 C 312.582 34.658,312.212 34.403,312.167 34.345 C 312.121 34.287,311.671 33.981,311.167 33.665 C 310.662 33.349,310.149 32.993,310.026 32.875 C 309.903 32.756,309.581 32.545,309.311 32.405 C 308.799 32.140,306.381 30.612,306.073 30.358 C 305.975 30.277,305.713 30.115,305.490 29.998 C 305.266 29.880,304.581 29.457,303.967 29.058 C 303.353 28.660,302.812 28.333,302.763 28.333 C 302.681 28.333,300.775 27.210,299.500 26.409 C 299.179 26.208,298.467 25.802,297.917 25.507 C 297.367 25.211,296.429 24.702,295.833 24.374 C 290.677 21.536,283.744 18.171,278.417 15.919 C 277.408 15.493,276.171 14.969,275.667 14.755 C 274.282 14.166,271.004 12.902,270.250 12.666 C 269.883 12.551,269.508 12.402,269.417 12.336 C 269.325 12.270,267.637 11.674,265.667 11.013 C 263.696 10.351,261.933 9.743,261.750 9.663 C 261.415 9.516,259.134 8.823,255.417 7.738 C 250.430 6.284,244.649 4.891,239.167 3.823 C 237.287 3.457,235.637 3.124,235.500 3.082 C 235.149 2.975,229.051 2.039,226.250 1.662 C 224.077 1.370,218.790 0.825,214.917 0.494 C 209.437 0.025,197.018 -0.129,190.083 0.187 M212.000 8.494 C 319.686 15.937,399.286 107.644,391.244 215.000 C 384.487 305.207,313.943 379.086,223.917 390.238 C 99.564 405.641,-5.810 300.231,9.668 175.917 C 20.855 86.073,94.357 15.826,184.583 8.749 C 191.972 8.170,205.492 8.044,212.000 8.494 M194.083 17.098 C 146.155 19.149,104.005 37.391,70.900 70.412 C -6.552 147.666,0.431 274.399,85.917 342.939 C 148.211 392.886,236.945 396.260,302.917 351.193 C 394.359 288.725,410.044 160.846,336.417 78.067 C 300.718 37.930,246.817 14.842,194.083 17.098 M210.583 21.334 C 288.768 26.061,354.868 80.914,373.656 156.660 C 393.800 237.874,355.240 321.979,280.583 359.665 C 183.181 408.832,64.716 359.950,30.159 256.333 C 0.654 167.869,44.433 71.441,130.667 34.953 C 132.328 34.250,133.336 33.846,137.000 32.416 C 153.773 25.868,173.423 22.006,194.583 21.098 C 196.915 20.998,207.642 21.156,210.583 21.334 M59.269 130.515 L 58.827 130.862 58.872 134.556 L 58.917 138.250 59.500 138.541 C 60.015 138.799,60.651 138.833,64.959 138.833 L 69.834 138.833 69.792 171.542 L 69.750 204.250 64.583 204.339 C 61.742 204.389,59.403 204.445,59.387 204.464 C 59.371 204.484,59.239 204.618,59.095 204.762 C 58.643 205.215,58.711 212.044,59.173 212.506 C 59.732 213.065,104.891 212.930,108.417 212.358 C 123.149 209.971,130.866 202.061,130.878 189.333 C 130.887 179.511,125.397 172.328,116.091 169.984 C 115.135 169.744,115.141 169.604,116.125 169.101 C 123.498 165.333,127.341 156.961,125.777 148.074 C 124.191 139.064,117.295 132.563,107.500 130.846 C 103.795 130.196,102.648 130.167,80.921 130.167 L 59.712 130.167 59.269 130.515 M162.939 130.512 L 162.500 130.858 162.500 134.356 C 162.500 139.113,162.201 138.833,167.293 138.833 C 169.953 138.833,170.684 138.879,170.621 139.042 C 170.576 139.156,169.900 140.825,169.119 142.750 C 166.662 148.803,163.760 155.964,161.214 162.250 C 158.718 168.414,157.394 171.683,156.251 174.500 C 154.569 178.645,152.442 183.895,151.084 187.250 C 150.417 188.900,149.140 192.050,148.248 194.250 C 147.356 196.450,146.079 199.600,145.412 201.250 L 144.198 204.250 139.585 204.333 C 135.264 204.411,134.958 204.437,134.736 204.740 C 134.283 205.360,134.401 212.245,134.870 212.574 C 135.199 212.804,136.897 212.833,149.845 212.833 L 164.448 212.833 164.766 212.483 C 165.057 212.160,165.083 211.838,165.083 208.551 C 165.083 203.868,165.683 204.333,159.648 204.333 C 157.092 204.333,155.000 204.311,155.000 204.283 C 155.000 204.255,156.793 199.773,158.985 194.324 L 162.971 184.417 180.251 184.417 L 197.532 184.417 199.778 190.000 C 201.014 193.071,202.765 197.421,203.670 199.667 C 204.574 201.912,205.364 203.881,205.425 204.042 C 205.529 204.315,205.245 204.333,200.870 204.333 C 194.814 204.333,195.417 203.867,195.417 208.551 C 195.417 211.838,195.443 212.160,195.734 212.483 L 196.052 212.833 210.776 212.833 C 225.278 212.833,225.505 212.828,225.833 212.500 C 226.268 212.065,226.352 205.318,225.930 204.740 C 225.709 204.437,225.401 204.411,220.997 204.333 L 216.300 204.250 214.554 200.000 C 213.593 197.662,212.256 194.400,211.581 192.750 C 209.388 187.384,208.051 184.120,207.246 182.167 C 206.811 181.112,205.950 179.012,205.331 177.500 C 204.712 175.987,203.852 173.887,203.418 172.833 C 202.984 171.779,202.219 169.904,201.718 168.667 C 201.217 167.429,200.553 165.817,200.243 165.083 C 199.934 164.350,197.008 157.225,193.743 149.250 C 186.131 130.663,186.377 131.091,182.867 130.352 C 181.023 129.965,163.456 130.105,162.939 130.512 M231.207 130.371 C 230.595 130.666,230.471 131.491,230.529 134.871 C 230.603 139.149,229.984 138.736,236.421 138.801 L 241.500 138.851 241.500 171.592 L 241.500 204.333 236.435 204.333 C 229.912 204.333,230.583 203.846,230.583 208.583 C 230.583 212.179,230.585 212.198,230.977 212.515 C 231.617 213.034,300.245 213.013,300.802 212.494 L 301.167 212.154 301.167 202.170 L 301.167 192.186 300.796 191.926 C 300.178 191.493,292.521 191.545,291.977 191.985 L 291.583 192.304 291.536 198.319 L 291.488 204.335 271.869 204.292 L 252.250 204.250 252.208 171.542 L 252.166 138.833 256.975 138.833 C 261.932 138.833,262.688 138.749,263.004 138.160 C 263.407 137.406,263.200 131.018,262.758 130.576 L 262.348 130.167 246.966 130.178 C 236.244 130.186,231.469 130.244,231.207 130.371 M308.936 130.515 L 308.494 130.862 308.539 134.556 L 308.583 138.250 309.167 138.541 C 309.681 138.799,310.314 138.833,314.542 138.833 L 319.333 138.833 319.333 171.583 L 319.333 204.333 314.250 204.333 C 307.825 204.333,308.500 203.835,308.500 208.583 C 308.500 211.944,308.521 212.187,308.833 212.500 C 309.162 212.829,309.389 212.833,324.833 212.833 C 340.278 212.833,340.505 212.829,340.833 212.500 C 341.179 212.155,341.362 205.384,341.039 204.900 C 340.698 204.389,340.123 204.333,335.178 204.333 L 330.167 204.333 330.167 171.583 L 330.167 138.833 334.975 138.833 C 341.684 138.833,341.167 139.208,341.167 134.356 L 341.167 130.858 340.728 130.512 C 340.032 129.965,309.632 129.967,308.936 130.515 M103.333 139.233 C 111.857 141.227,115.762 145.934,115.267 153.617 C 114.876 159.677,111.839 163.385,105.535 165.497 C 102.865 166.392,101.221 166.500,90.325 166.500 L 80.500 166.500 80.500 152.658 L 80.500 138.815 91.292 138.878 C 100.851 138.934,102.226 138.974,103.333 139.233 M187.318 159.250 L 194.122 176.250 180.284 176.293 C 172.673 176.316,166.412 176.301,166.370 176.259 C 166.297 176.186,167.043 174.292,170.672 165.333 C 171.508 163.271,173.582 158.133,175.283 153.917 C 177.831 147.597,179.315 143.928,179.953 142.367 C 180.231 141.687,180.928 143.284,187.318 159.250 M103.500 174.169 C 115.012 175.028,120.699 180.323,120.100 189.624 C 119.534 198.392,113.891 203.121,102.750 204.162 C 101.729 204.257,96.395 204.333,90.708 204.333 L 80.500 204.333 80.500 189.167 L 80.500 174.000 90.875 174.000 C 96.581 174.001,102.263 174.076,103.500 174.169 M188.836 229.014 C 181.642 229.822,177.355 233.403,177.337 238.617 C 177.329 241.080,178.060 242.993,179.620 244.591 C 181.785 246.810,182.893 247.292,192.417 250.167 C 198.469 251.994,200.328 253.544,200.471 256.881 C 200.774 263.951,187.986 265.510,179.227 259.471 C 178.573 259.020,177.905 258.504,177.743 258.325 C 177.263 257.795,177.104 257.920,176.009 259.679 L 174.964 261.357 175.350 261.768 C 175.950 262.407,178.606 264.119,180.099 264.830 C 193.086 271.013,208.097 264.932,205.409 254.577 C 204.256 250.137,201.666 248.409,191.917 245.579 C 184.680 243.478,182.476 241.806,182.454 238.401 C 182.418 232.815,192.755 231.126,201.197 235.339 C 201.926 235.702,202.550 236.000,202.584 236.000 C 202.637 236.000,203.912 233.787,204.479 232.712 C 204.664 232.360,204.602 232.304,203.296 231.646 C 199.163 229.564,193.352 228.506,188.836 229.014 M265.833 228.947 C 258.255 229.509,253.633 233.186,253.618 238.667 C 253.604 243.656,256.216 246.271,263.500 248.558 C 265.104 249.062,267.654 249.864,269.167 250.340 C 274.870 252.134,276.719 253.760,276.740 257.000 C 276.789 264.509,262.495 265.445,254.146 258.481 L 253.376 257.838 252.490 259.294 C 252.003 260.095,251.500 260.915,251.372 261.116 C 251.151 261.465,251.204 261.529,252.501 262.491 C 264.635 271.487,283.294 267.161,281.844 255.687 C 281.192 250.522,278.486 248.540,267.917 245.489 C 261.020 243.498,258.667 241.686,258.667 238.364 C 258.667 232.837,268.679 231.182,277.309 235.281 C 278.166 235.689,278.886 235.998,278.908 235.969 C 279.354 235.398,280.828 232.460,280.740 232.317 C 280.550 232.009,277.740 230.756,276.000 230.203 C 272.605 229.125,269.168 228.700,265.833 228.947 M118.000 229.394 C 118.000 229.432,118.816 231.290,119.814 233.523 C 122.177 238.812,126.681 248.860,127.499 250.667 C 128.202 252.221,129.706 255.576,131.833 260.333 C 132.591 262.029,133.569 264.204,134.006 265.167 L 134.800 266.917 137.172 266.917 L 139.545 266.917 142.862 259.583 C 144.686 255.550,146.394 251.762,146.657 251.167 C 146.920 250.571,147.695 248.846,148.379 247.333 C 152.581 238.048,155.918 230.654,156.182 230.042 L 156.488 229.333 154.022 229.333 L 151.555 229.333 150.759 231.125 C 149.517 233.924,148.733 235.711,142.081 250.917 C 139.635 256.508,137.545 261.251,137.438 261.456 C 137.263 261.791,137.047 261.382,135.293 257.373 C 134.220 254.922,132.434 250.854,131.324 248.333 C 130.214 245.813,128.418 241.725,127.332 239.250 C 126.247 236.775,124.832 233.550,124.189 232.083 L 123.018 229.417 120.509 229.371 C 119.129 229.345,118.000 229.356,118.000 229.394 M162.667 248.167 L 162.667 267.000 165.000 267.000 L 167.333 267.000 167.333 248.167 L 167.333 229.333 165.000 229.333 L 162.667 229.333 162.667 248.167 M223.372 236.458 C 221.437 240.377,217.262 248.815,214.094 255.209 C 210.925 261.604,208.333 266.874,208.333 266.922 C 208.333 266.970,209.460 266.988,210.837 266.963 L 213.341 266.917 215.701 262.042 L 218.060 257.167 229.209 257.167 L 240.358 257.167 242.757 262.083 L 245.156 267.000 247.662 267.000 C 249.039 267.000,250.167 266.938,250.167 266.862 C 250.167 266.786,248.343 263.055,246.115 258.570 C 243.887 254.086,239.710 245.673,236.834 239.875 L 231.605 229.333 229.248 229.333 L 226.891 229.333 223.372 236.458 M229.909 235.726 C 230.212 236.381,231.566 239.167,232.918 241.917 C 236.659 249.531,238.343 253.046,238.278 253.111 C 238.246 253.143,234.124 253.150,229.119 253.126 L 220.020 253.083 224.543 243.719 C 227.031 238.569,229.132 234.395,229.212 234.445 C 229.292 234.494,229.606 235.071,229.909 235.726 M57.833 239.750 L 57.833 241.167 80.333 241.167 L 102.833 241.167 102.833 239.750 L 102.833 238.333 80.333 238.333 L 57.833 238.333 57.833 239.750 M297.167 239.750 L 297.167 241.167 319.667 241.167 L 342.167 241.167 342.167 239.750 L 342.167 238.333 319.667 238.333 L 297.167 238.333 297.167 239.750 M57.833 248.083 L 57.833 249.500 82.750 249.500 L 107.667 249.500 107.667 248.083 L 107.667 246.667 82.750 246.667 L 57.833 246.667 57.833 248.083 M292.333 248.083 L 292.333 249.500 317.250 249.500 L 342.167 249.500 342.167 248.083 L 342.167 246.667 317.250 246.667 L 292.333 246.667 292.333 248.083 M57.833 256.500 L 57.833 258.000 80.333 258.000 L 102.833 258.000 102.833 256.500 L 102.833 255.000 80.333 255.000 L 57.833 255.000 57.833 256.500 M297.167 256.500 L 297.167 258.000 319.667 258.000 L 342.167 258.000 342.167 256.500 L 342.167 255.000 319.667 255.000 L 297.167 255.000 297.167 256.500 " stroke="none" fill="#fbfbfb" fill-rule="evenodd"></path><path id="path1" d="M194.167 8.283 C 186.870 8.453,172.721 9.900,166.750 11.086 C 166.108 11.213,164.721 11.476,163.667 11.669 C 143.895 15.303,122.340 23.323,104.350 33.741 C 35.754 73.461,-1.162 149.878,10.345 228.333 C 10.714 230.854,11.049 233.029,11.088 233.167 C 11.128 233.304,11.385 234.625,11.661 236.102 C 25.509 310.273,83.687 370.358,157.750 386.977 C 250.004 407.679,343.630 358.238,378.322 270.500 C 380.084 266.043,380.350 265.311,381.918 260.604 C 406.885 185.681,383.410 103.194,322.737 52.649 C 305.923 38.643,288.560 28.555,266.833 20.173 C 258.822 17.082,245.659 13.414,236.325 11.672 C 234.817 11.390,233.471 11.127,233.333 11.087 C 232.673 10.894,223.550 9.627,220.750 9.340 C 211.287 8.367,203.608 8.062,194.167 8.283 M213.083 17.396 C 233.369 18.986,251.089 23.111,269.083 30.434 C 271.144 31.272,272.202 31.726,275.833 33.330 C 312.408 49.480,345.103 80.920,363.481 117.612 C 371.135 132.891,376.842 149.548,379.662 164.833 C 379.857 165.887,380.124 167.285,380.255 167.938 C 381.060 171.932,382.092 180.654,382.700 188.583 C 383.464 198.560,382.815 214.345,381.162 226.000 C 369.255 309.929,300.248 375.144,215.833 382.242 C 199.198 383.641,181.545 382.806,166.750 379.919 C 165.650 379.705,164.262 379.443,163.667 379.336 C 158.683 378.449,148.630 375.773,142.266 373.639 C 58.403 345.524,6.728 262.436,18.675 174.917 C 20.011 165.132,22.501 153.899,25.196 145.500 C 26.830 140.410,27.334 138.962,29.083 134.333 C 39.003 108.082,56.138 83.216,77.667 63.825 C 107.949 36.550,146.637 20.143,187.083 17.424 C 189.192 17.282,191.254 17.138,191.667 17.104 C 193.858 16.923,209.827 17.141,213.083 17.396 M191.333 21.272 C 166.800 22.435,142.805 28.723,119.833 40.006 C 91.518 53.915,65.346 77.792,48.137 105.417 C 24.355 143.593,15.782 189.880,24.355 233.833 C 44.214 335.657,145.573 399.232,245.917 372.806 C 273.110 365.644,300.280 350.859,320.177 332.395 C 354.385 300.650,374.117 260.926,378.158 215.667 C 387.438 111.735,305.643 21.764,201.417 21.256 C 196.558 21.232,192.021 21.240,191.333 21.272 M106.667 130.553 C 115.992 132.271,123.146 137.892,125.157 145.083 C 128.030 155.352,124.856 164.087,116.462 169.013 C 115.362 169.659,115.365 169.667,116.917 170.170 C 126.270 173.199,130.901 179.545,130.901 189.333 C 130.901 200.588,124.729 208.335,113.297 211.433 C 107.835 212.913,105.271 213.030,79.880 212.967 L 59.509 212.917 59.130 212.537 C 58.758 212.166,58.750 212.080,58.750 208.583 C 58.750 203.773,58.097 204.264,64.588 204.201 L 69.667 204.153 69.667 171.493 L 69.667 138.833 64.761 138.833 C 59.498 138.833,59.160 138.788,58.849 138.039 C 58.429 137.025,58.674 130.865,59.150 130.480 C 59.737 130.005,104.062 130.073,106.667 130.553 M183.423 130.424 C 186.416 131.199,186.503 131.348,192.322 145.583 C 194.720 151.450,196.861 156.662,197.079 157.167 C 197.297 157.671,197.902 159.133,198.422 160.417 C 198.943 161.700,199.707 163.575,200.122 164.583 C 200.537 165.592,201.120 167.017,201.418 167.750 C 201.716 168.483,202.238 169.758,202.579 170.583 C 202.920 171.408,203.521 172.871,203.914 173.833 C 204.629 175.581,205.197 176.962,206.620 180.417 C 207.036 181.425,207.620 182.850,207.918 183.583 C 208.217 184.317,208.799 185.742,209.212 186.750 C 209.626 187.758,210.562 190.046,211.294 191.833 C 212.025 193.621,213.134 196.321,213.757 197.833 C 214.380 199.346,215.206 201.371,215.594 202.333 L 216.298 204.083 220.895 204.167 C 226.822 204.274,226.250 203.803,226.250 208.583 C 226.250 212.080,226.242 212.165,225.870 212.537 L 225.491 212.917 211.080 212.961 C 195.448 213.009,195.637 213.019,195.413 212.127 C 195.159 211.117,195.408 204.853,195.714 204.547 C 195.983 204.279,196.462 204.245,200.672 204.201 C 203.236 204.174,205.333 204.124,205.333 204.089 C 205.333 204.055,203.904 200.477,202.157 196.139 C 200.410 191.800,198.633 187.369,198.206 186.292 L 197.431 184.333 180.257 184.334 L 163.083 184.335 161.964 187.126 C 161.348 188.661,159.567 193.096,158.006 196.981 C 156.444 200.866,155.167 204.069,155.167 204.099 C 155.167 204.128,157.273 204.174,159.848 204.201 L 164.530 204.250 164.848 204.643 C 165.207 205.087,165.341 211.697,165.004 212.327 C 164.653 212.982,164.241 213.000,149.736 213.000 C 135.442 213.000,135.027 212.983,134.561 212.368 C 134.274 211.991,134.241 205.551,134.523 204.933 C 134.833 204.252,135.433 204.167,139.919 204.167 L 144.121 204.167 145.297 201.292 C 146.669 197.940,148.077 194.474,151.340 186.417 C 152.639 183.208,154.189 179.383,154.784 177.917 C 155.379 176.450,156.654 173.300,157.618 170.917 C 159.249 166.882,164.920 152.895,167.787 145.833 C 169.869 140.706,170.500 139.110,170.500 138.969 C 170.500 138.894,168.921 138.833,166.992 138.833 C 162.002 138.833,162.339 139.162,162.336 134.284 C 162.333 131.002,162.335 130.983,162.742 130.576 L 163.152 130.167 172.791 130.167 C 180.941 130.167,182.583 130.206,183.423 130.424 M262.857 130.485 C 263.314 130.855,263.567 137.033,263.165 138.003 C 262.841 138.787,262.509 138.833,257.242 138.833 L 252.333 138.833 252.333 171.500 L 252.333 204.167 271.917 204.167 L 291.500 204.167 291.500 198.268 C 291.500 190.757,290.926 191.599,296.096 191.533 C 300.388 191.478,300.841 191.548,301.156 192.308 C 301.286 192.623,301.328 195.632,301.296 202.456 L 301.250 212.158 300.870 212.537 L 300.491 212.917 266.370 212.964 C 230.936 213.014,231.353 213.020,230.824 212.491 C 230.460 212.126,230.320 205.481,230.663 204.840 C 230.978 204.251,231.735 204.167,236.692 204.167 L 241.500 204.167 241.500 171.507 L 241.500 138.847 236.318 138.798 L 231.137 138.750 230.818 138.357 C 230.263 137.670,230.339 131.146,230.909 130.576 L 231.318 130.167 246.891 130.167 C 261.969 130.167,262.476 130.177,262.857 130.485 M340.857 130.485 C 341.318 130.859,341.562 136.578,341.171 137.883 C 340.896 138.803,340.701 138.833,335.156 138.833 L 330.167 138.833 330.167 171.493 L 330.167 204.153 335.329 204.202 C 341.917 204.263,341.250 203.770,341.250 208.583 C 341.250 212.080,341.242 212.166,340.870 212.537 L 340.491 212.917 324.814 212.917 L 309.138 212.917 308.736 212.449 C 308.108 211.720,308.108 205.447,308.735 204.718 L 309.137 204.250 314.235 204.201 L 319.333 204.153 319.333 171.500 L 319.333 138.847 314.152 138.798 L 308.970 138.750 308.652 138.357 C 308.096 137.670,308.172 131.146,308.742 130.576 L 309.152 130.167 324.807 130.167 C 339.969 130.167,340.475 130.177,340.857 130.485 M80.500 152.682 L 80.500 166.531 91.042 166.448 C 101.981 166.361,102.261 166.344,104.935 165.579 C 111.690 163.647,114.894 159.741,115.116 153.167 C 115.366 145.785,111.968 141.537,104.249 139.579 C 101.648 138.919,100.008 138.833,90.007 138.833 L 80.500 138.833 80.500 152.682 M178.300 146.627 C 176.520 151.076,173.870 157.640,169.470 168.500 C 168.188 171.662,166.959 174.719,166.738 175.292 L 166.336 176.333 180.168 176.333 C 187.776 176.333,194.000 176.297,194.000 176.252 C 194.000 176.176,192.796 173.133,190.735 168.000 C 190.238 166.762,187.713 160.445,185.124 153.962 C 182.535 147.479,180.342 142.173,180.250 142.173 C 180.158 142.172,179.281 144.176,178.300 146.627 M80.500 189.168 L 80.500 204.187 92.375 204.117 C 102.102 204.059,104.492 204.001,105.590 203.792 C 115.502 201.911,119.881 197.280,119.892 188.667 C 119.900 181.621,117.166 177.763,110.583 175.533 C 107.016 174.324,106.304 174.271,92.708 174.207 L 80.500 174.149 80.500 189.168 M195.333 229.079 C 198.698 229.598,204.667 231.717,204.667 232.392 C 204.667 232.481,204.211 233.365,203.654 234.356 L 202.641 236.157 201.165 235.416 C 192.893 231.261,182.511 232.891,182.502 238.345 C 182.495 241.999,184.554 243.343,194.750 246.342 C 203.603 248.946,207.068 253.140,205.434 259.277 C 202.937 268.654,184.945 270.265,175.463 261.960 L 174.843 261.417 175.883 259.720 C 176.454 258.786,176.974 257.971,177.037 257.908 C 177.100 257.844,177.624 258.167,178.201 258.625 C 186.615 265.299,200.500 264.339,200.500 257.083 C 200.500 254.377,198.573 252.340,194.750 251.001 C 193.408 250.532,192.343 250.204,187.381 248.734 C 180.202 246.608,177.277 243.663,177.296 238.583 C 177.322 231.762,185.338 227.538,195.333 229.079 M273.333 229.384 C 276.169 230.053,279.712 231.401,280.705 232.188 C 280.952 232.385,279.813 234.901,278.923 236.122 C 278.907 236.143,278.387 235.891,277.767 235.562 C 269.537 231.192,258.726 232.821,258.756 238.426 C 258.775 241.722,261.310 243.620,268.235 245.521 C 278.812 248.424,281.991 251.079,281.999 257.015 C 282.013 267.262,264.938 270.975,253.417 263.230 C 250.806 261.475,250.893 261.728,252.181 259.643 C 253.438 257.609,253.307 257.672,254.412 258.572 C 262.687 265.312,276.722 264.371,276.722 257.076 C 276.722 253.423,274.674 251.982,265.732 249.344 C 255.554 246.341,252.485 243.153,253.668 236.814 C 254.793 230.786,264.206 227.229,273.333 229.384 M124.266 232.083 C 126.789 237.803,127.155 238.636,128.337 241.333 C 131.597 248.772,132.786 251.477,134.416 255.167 C 135.084 256.679,136.004 258.762,136.460 259.795 L 137.290 261.674 139.092 257.545 C 140.084 255.275,141.226 252.667,141.630 251.750 C 142.035 250.833,142.609 249.521,142.907 248.833 C 143.205 248.146,144.633 244.883,146.082 241.583 C 148.718 235.577,149.083 234.741,150.636 231.167 L 151.469 229.250 154.068 229.204 L 156.666 229.158 156.232 230.121 C 155.993 230.650,155.685 231.346,155.547 231.667 C 155.260 232.336,154.143 234.809,152.501 238.417 C 151.875 239.792,150.484 242.867,149.411 245.250 C 146.297 252.162,145.862 253.126,144.822 255.417 C 144.281 256.608,142.873 259.721,141.693 262.333 L 139.548 267.083 137.158 267.083 L 134.767 267.083 133.873 265.083 C 133.380 263.983,132.560 262.146,132.050 261.000 C 131.540 259.854,130.899 258.429,130.625 257.833 C 130.351 257.237,129.357 255.025,128.415 252.917 C 127.474 250.808,126.164 247.883,125.504 246.417 C 124.845 244.950,123.381 241.688,122.251 239.167 C 121.122 236.646,119.666 233.397,119.016 231.946 C 118.365 230.495,117.833 229.275,117.833 229.233 C 117.833 229.192,119.000 229.179,120.425 229.204 L 123.017 229.250 124.266 232.083 M167.333 248.167 L 167.333 267.167 164.917 267.167 L 162.500 267.167 162.500 248.167 L 162.500 229.167 164.917 229.167 L 167.333 229.167 167.333 248.167 M232.044 230.042 C 232.282 230.523,235.752 237.517,239.756 245.583 C 250.063 266.346,250.333 266.894,250.333 267.038 C 250.333 267.109,249.168 267.167,247.744 267.167 L 245.154 267.167 242.751 262.250 L 240.349 257.333 229.204 257.333 L 218.060 257.333 216.837 259.875 C 216.164 261.273,215.093 263.485,214.455 264.792 L 213.297 267.167 210.732 267.167 C 209.321 267.167,208.167 267.125,208.167 267.074 C 208.167 267.023,210.459 262.354,213.261 256.699 C 216.063 251.044,220.276 242.535,222.624 237.792 L 226.893 229.167 229.253 229.167 L 231.613 229.167 232.044 230.042 M228.298 236.125 C 227.876 237.019,225.868 241.188,223.836 245.390 C 221.804 249.593,220.173 253.062,220.211 253.100 C 220.249 253.138,224.333 253.150,229.286 253.126 L 238.290 253.083 237.151 250.750 C 236.525 249.467,234.510 245.350,232.673 241.603 C 230.836 237.855,229.333 234.724,229.333 234.645 C 229.333 234.180,228.973 234.695,228.298 236.125 M102.965 239.708 L 102.917 241.250 80.292 241.292 L 57.667 241.335 57.667 239.751 L 57.667 238.167 80.340 238.167 L 103.013 238.167 102.965 239.708 M342.333 239.751 L 342.333 241.335 319.708 241.292 L 297.083 241.250 297.035 239.708 L 296.987 238.167 319.660 238.167 L 342.333 238.167 342.333 239.751 M107.667 248.083 L 107.667 249.667 82.667 249.667 L 57.667 249.667 57.667 248.083 L 57.667 246.500 82.667 246.500 L 107.667 246.500 107.667 248.083 M342.333 248.083 L 342.333 249.667 317.333 249.667 L 292.333 249.667 292.333 248.083 L 292.333 246.500 317.333 246.500 L 342.333 246.500 342.333 248.083 M102.965 256.458 L 103.013 258.000 80.340 258.000 L 57.667 258.000 57.667 256.416 L 57.667 254.832 80.292 254.874 L 102.917 254.917 102.965 256.458 M342.333 256.417 L 342.333 258.000 319.667 258.000 L 297.000 258.000 297.000 256.528 C 297.000 255.718,297.050 255.006,297.111 254.944 C 297.172 254.883,307.372 254.833,319.778 254.833 L 342.333 254.833 342.333 256.417 " stroke="none" fill="#2c8c94" fill-rule="evenodd"></path><path id="path2" d="M198.125 21.121 C 198.423 21.158,198.910 21.158,199.208 21.121 C 199.506 21.084,199.262 21.053,198.667 21.053 C 198.071 21.053,197.827 21.084,198.125 21.121 M200.792 21.121 C 201.090 21.158,201.577 21.158,201.875 21.121 C 202.173 21.084,201.929 21.053,201.333 21.053 C 200.737 21.053,200.494 21.084,200.792 21.121 M71.333 69.750 C 70.928 70.162,70.635 70.500,70.681 70.500 C 70.726 70.500,71.095 70.162,71.500 69.750 C 71.905 69.337,72.199 69.000,72.153 69.000 C 72.107 69.000,71.738 69.337,71.333 69.750 M329.333 70.583 C 329.924 71.179,330.445 71.667,330.490 71.667 C 330.536 71.667,330.091 71.179,329.500 70.583 C 328.909 69.987,328.389 69.500,328.343 69.500 C 328.297 69.500,328.743 69.987,329.333 70.583 M69.575 71.542 L 68.917 72.250 69.625 71.591 C 70.284 70.978,70.410 70.833,70.284 70.833 C 70.257 70.833,69.938 71.152,69.575 71.542 M341.236 134.500 C 341.236 136.196,341.261 136.890,341.291 136.042 C 341.321 135.194,341.321 133.806,341.291 132.958 C 341.261 132.110,341.236 132.804,341.236 134.500 M100.375 174.115 C 100.535 174.157,100.798 174.157,100.958 174.115 C 101.119 174.073,100.987 174.039,100.667 174.039 C 100.346 174.039,100.215 174.073,100.375 174.115 M120.039 188.500 C 120.039 188.821,120.073 188.952,120.115 188.792 C 120.157 188.631,120.157 188.369,120.115 188.208 C 120.073 188.048,120.039 188.179,120.039 188.500 M62.375 204.291 C 63.727 204.319,65.940 204.319,67.292 204.291 C 68.644 204.263,67.537 204.240,64.833 204.240 C 62.129 204.240,61.023 204.263,62.375 204.291 M85.208 204.292 C 87.844 204.317,92.156 204.317,94.792 204.292 C 97.427 204.266,95.271 204.245,90.000 204.245 C 84.729 204.245,82.573 204.266,85.208 204.292 M137.698 204.291 C 138.862 204.320,140.812 204.320,142.032 204.291 C 143.252 204.263,142.300 204.239,139.917 204.239 C 137.533 204.239,136.535 204.263,137.698 204.291 M157.385 204.291 C 158.651 204.320,160.676 204.320,161.885 204.291 C 163.094 204.263,162.058 204.240,159.583 204.240 C 157.108 204.240,156.119 204.263,157.385 204.291 M198.718 204.291 C 199.984 204.320,202.009 204.320,203.218 204.291 C 204.427 204.263,203.392 204.240,200.917 204.240 C 198.442 204.240,197.452 204.263,198.718 204.291 M218.532 204.291 C 219.695 204.320,221.645 204.320,222.865 204.291 C 224.085 204.263,223.133 204.239,220.750 204.239 C 218.367 204.239,217.368 204.263,218.532 204.291 M234.208 204.291 C 235.560 204.319,237.773 204.319,239.125 204.291 C 240.477 204.263,239.371 204.240,236.667 204.240 C 233.963 204.240,232.856 204.263,234.208 204.291 M262.029 204.292 C 267.407 204.316,276.257 204.316,281.695 204.292 C 287.134 204.267,282.733 204.247,271.917 204.247 C 261.100 204.247,256.650 204.267,262.029 204.292 M312.042 204.291 C 313.394 204.319,315.606 204.319,316.958 204.291 C 318.310 204.263,317.204 204.240,314.500 204.240 C 311.796 204.240,310.690 204.263,312.042 204.291 M332.635 204.291 C 334.039 204.319,336.289 204.319,337.635 204.291 C 338.982 204.263,337.833 204.240,335.083 204.241 C 332.333 204.241,331.232 204.263,332.635 204.291 M341.236 208.583 C 341.236 210.325,341.261 211.015,341.291 210.116 C 341.321 209.218,341.321 207.793,341.291 206.950 C 341.261 206.107,341.236 206.842,341.236 208.583 M70.362 212.958 C 76.015 212.983,85.315 212.983,91.029 212.958 C 96.742 212.934,92.117 212.914,80.750 212.914 C 69.383 212.914,64.709 212.934,70.362 212.958 M142.721 212.958 C 146.646 212.983,153.021 212.983,156.887 212.958 C 160.754 212.933,157.542 212.913,149.750 212.913 C 141.958 212.913,138.795 212.933,142.721 212.958 M203.708 212.958 C 207.627 212.983,214.040 212.983,217.958 212.958 C 221.877 212.933,218.671 212.913,210.833 212.913 C 202.996 212.913,199.790 212.933,203.708 212.958 M248.792 212.958 C 258.165 212.982,273.502 212.982,282.875 212.958 C 292.248 212.935,284.579 212.915,265.833 212.915 C 247.088 212.915,239.419 212.935,248.792 212.958 M317.292 212.958 C 321.440 212.983,328.227 212.983,332.375 212.958 C 336.523 212.933,333.129 212.913,324.833 212.913 C 316.537 212.913,313.144 212.933,317.292 212.958 M69.042 241.292 C 75.252 241.316,85.415 241.316,91.625 241.292 C 97.835 241.267,92.754 241.248,80.333 241.248 C 67.912 241.248,62.831 241.267,69.042 241.292 M308.375 241.292 C 314.585 241.316,324.748 241.316,330.958 241.292 C 337.169 241.267,332.087 241.248,319.667 241.248 C 307.246 241.248,302.165 241.267,308.375 241.292 " stroke="none" fill="#77b4b9" fill-rule="evenodd"></path><path id="path3" d="M194.042 8.282 C 194.202 8.323,194.465 8.323,194.625 8.282 C 194.785 8.240,194.654 8.205,194.333 8.205 C 194.012 8.205,193.881 8.240,194.042 8.282 M205.375 8.282 C 205.535 8.323,205.798 8.323,205.958 8.282 C 206.119 8.240,205.987 8.205,205.667 8.205 C 205.346 8.205,205.215 8.240,205.375 8.282 M194.460 17.118 C 194.668 17.158,194.968 17.156,195.127 17.115 C 195.286 17.073,195.117 17.040,194.750 17.042 C 194.383 17.044,194.253 17.078,194.460 17.118 M204.960 17.118 C 205.168 17.158,205.468 17.156,205.627 17.115 C 205.786 17.073,205.617 17.040,205.250 17.042 C 204.883 17.044,204.753 17.078,204.960 17.118 M196.295 21.121 C 196.594 21.158,197.044 21.157,197.295 21.119 C 197.545 21.081,197.300 21.051,196.750 21.052 C 196.200 21.053,195.995 21.084,196.295 21.121 M202.795 21.121 C 203.094 21.158,203.544 21.157,203.795 21.119 C 204.045 21.081,203.800 21.051,203.250 21.052 C 202.700 21.053,202.495 21.084,202.795 21.121 M68.740 60.042 L 68.250 60.583 68.792 60.094 C 69.297 59.638,69.410 59.500,69.281 59.500 C 69.252 59.500,69.009 59.744,68.740 60.042 M76.658 70.292 L 76.083 70.917 76.708 70.342 C 77.052 70.026,77.333 69.745,77.333 69.717 C 77.333 69.590,77.192 69.710,76.658 70.292 M323.250 70.333 C 323.608 70.700,323.938 71.000,323.984 71.000 C 324.030 71.000,323.775 70.700,323.417 70.333 C 323.059 69.967,322.728 69.667,322.682 69.667 C 322.637 69.667,322.892 69.967,323.250 70.333 M162.403 134.500 C 162.403 136.287,162.428 137.019,162.458 136.125 C 162.488 135.231,162.488 133.769,162.458 132.875 C 162.428 131.981,162.403 132.712,162.403 134.500 M308.403 134.500 C 308.403 136.287,308.428 137.019,308.458 136.125 C 308.488 135.231,308.488 133.769,308.458 132.875 C 308.428 131.981,308.403 132.712,308.403 134.500 M58.736 134.500 C 58.736 136.196,58.761 136.890,58.791 136.042 C 58.821 135.194,58.821 133.806,58.791 132.958 C 58.761 132.110,58.736 132.804,58.736 134.500 M263.236 134.500 C 263.236 136.196,263.261 136.890,263.291 136.042 C 263.321 135.194,263.321 133.806,263.291 132.958 C 263.261 132.110,263.236 132.804,263.236 134.500 M69.748 171.500 C 69.748 189.512,69.768 196.881,69.792 187.875 C 69.815 178.869,69.815 164.131,69.792 155.125 C 69.768 146.119,69.748 153.487,69.748 171.500 M252.248 171.500 C 252.248 189.512,252.268 196.881,252.292 187.875 C 252.315 178.869,252.315 164.131,252.292 155.125 C 252.268 146.119,252.248 153.487,252.248 171.500 M101.375 174.115 C 101.535 174.157,101.798 174.157,101.958 174.115 C 102.119 174.073,101.987 174.039,101.667 174.039 C 101.346 174.039,101.215 174.073,101.375 174.115 M120.039 187.500 C 120.039 187.821,120.073 187.952,120.115 187.792 C 120.157 187.631,120.157 187.369,120.115 187.208 C 120.073 187.048,120.039 187.179,120.039 187.500 M120.039 189.500 C 120.039 189.821,120.073 189.952,120.115 189.792 C 120.157 189.631,120.157 189.369,120.115 189.208 C 120.073 189.048,120.039 189.179,120.039 189.500 M294.717 191.624 C 295.708 191.654,297.283 191.654,298.217 191.624 C 299.152 191.595,298.342 191.570,296.417 191.571 C 294.492 191.571,293.727 191.595,294.717 191.624 M301.245 202.250 C 301.245 207.475,301.266 209.588,301.292 206.946 C 301.317 204.305,301.317 200.030,301.292 197.446 C 301.266 194.863,301.245 197.025,301.245 202.250 M8.205 195.000 C 8.205 195.321,8.240 195.452,8.282 195.292 C 8.323 195.131,8.323 194.869,8.282 194.708 C 8.240 194.548,8.205 194.679,8.205 195.000 M17.048 195.417 C 17.049 195.875,17.081 196.043,17.120 195.789 C 17.158 195.536,17.157 195.161,17.117 194.956 C 17.078 194.751,17.046 194.958,17.048 195.417 M391.712 195.333 C 391.712 195.746,391.745 195.915,391.784 195.708 C 391.824 195.502,391.824 195.165,391.784 194.958 C 391.745 194.752,391.712 194.921,391.712 195.333 M382.883 195.833 C 382.883 196.338,382.915 196.544,382.953 196.292 C 382.991 196.040,382.991 195.627,382.953 195.375 C 382.915 195.123,382.883 195.329,382.883 195.833 M21.068 199.917 C 21.068 201.475,21.093 202.135,21.124 201.383 C 21.155 200.631,21.155 199.356,21.124 198.550 C 21.094 197.743,21.068 198.358,21.068 199.917 M378.900 199.917 C 378.900 201.292,378.926 201.832,378.957 201.117 C 378.989 200.403,378.988 199.278,378.957 198.617 C 378.925 197.957,378.900 198.542,378.900 199.917 M382.885 204.083 C 382.886 204.633,382.917 204.838,382.954 204.539 C 382.991 204.239,382.990 203.789,382.952 203.539 C 382.914 203.288,382.884 203.533,382.885 204.083 M17.048 204.417 C 17.049 204.875,17.081 205.043,17.120 204.789 C 17.158 204.536,17.157 204.161,17.117 203.956 C 17.078 203.751,17.046 203.958,17.048 204.417 M391.712 204.500 C 391.712 204.912,391.745 205.081,391.784 204.875 C 391.824 204.669,391.824 204.331,391.784 204.125 C 391.745 203.919,391.712 204.088,391.712 204.500 M99.955 204.287 C 100.250 204.324,100.775 204.324,101.121 204.288 C 101.467 204.252,101.225 204.222,100.583 204.221 C 99.942 204.221,99.659 204.250,99.955 204.287 M8.209 204.917 C 8.211 205.283,8.245 205.414,8.285 205.206 C 8.324 204.999,8.323 204.699,8.281 204.540 C 8.239 204.380,8.207 204.550,8.209 204.917 M134.403 208.667 C 134.403 210.454,134.428 211.185,134.458 210.292 C 134.488 209.398,134.488 207.935,134.458 207.042 C 134.428 206.148,134.403 206.879,134.403 208.667 M308.403 208.583 C 308.403 210.325,308.428 211.015,308.458 210.116 C 308.488 209.218,308.488 207.793,308.457 206.950 C 308.427 206.107,308.403 206.842,308.403 208.583 M58.736 208.583 C 58.736 210.233,58.761 210.886,58.791 210.033 C 58.821 209.181,58.821 207.831,58.791 207.033 C 58.760 206.236,58.735 206.933,58.736 208.583 M119.133 229.291 C 119.894 229.322,121.094 229.322,121.800 229.290 C 122.506 229.259,121.883 229.234,120.417 229.234 C 118.950 229.234,118.372 229.260,119.133 229.291 M152.708 229.291 C 153.419 229.322,154.581 229.322,155.292 229.291 C 156.002 229.259,155.421 229.234,154.000 229.234 C 152.579 229.234,151.998 229.259,152.708 229.291 M162.541 248.125 L 162.583 267.083 164.875 267.091 L 167.167 267.098 164.917 267.044 L 162.667 266.991 162.667 248.167 L 162.667 229.342 165.042 229.291 L 167.417 229.240 164.958 229.203 L 162.499 229.167 162.541 248.125 M228.125 229.290 C 228.790 229.322,229.877 229.322,230.542 229.290 C 231.206 229.259,230.662 229.233,229.333 229.233 C 228.004 229.233,227.460 229.259,228.125 229.290 M57.737 238.390 C 57.690 238.512,57.677 239.206,57.709 239.931 L 57.766 241.250 57.800 239.792 L 57.833 238.335 80.375 238.292 L 102.917 238.249 80.370 238.208 C 61.663 238.174,57.808 238.205,57.737 238.390 M319.660 238.291 L 342.154 238.335 342.213 239.792 L 342.272 241.250 342.261 239.750 L 342.250 238.250 319.708 238.249 L 297.167 238.248 319.660 238.291 M57.737 246.723 C 57.690 246.846,57.674 247.540,57.701 248.265 L 57.750 249.583 82.708 249.584 L 107.667 249.585 82.750 249.542 L 57.833 249.499 57.833 248.083 L 57.833 246.668 82.792 246.625 L 107.750 246.582 82.786 246.541 C 62.062 246.507,57.808 246.538,57.737 246.723 M317.292 246.625 L 342.167 246.668 342.167 248.083 L 342.167 249.499 317.250 249.542 L 292.333 249.585 317.292 249.584 L 342.250 249.583 342.250 248.083 L 342.250 246.583 317.333 246.583 L 292.417 246.582 317.292 246.625 M198.500 252.885 C 198.500 252.914,198.744 253.158,199.042 253.427 L 199.583 253.917 199.094 253.375 C 198.638 252.870,198.500 252.757,198.500 252.885 M57.727 256.500 C 57.727 257.371,57.755 257.727,57.789 257.292 C 57.824 256.856,57.824 256.144,57.789 255.708 C 57.755 255.273,57.727 255.629,57.727 256.500 M342.227 256.500 C 342.227 257.371,342.255 257.727,342.289 257.292 C 342.324 256.856,342.324 256.144,342.289 255.708 C 342.255 255.273,342.227 255.629,342.227 256.500 M134.776 267.042 C 134.818 267.110,135.894 267.167,137.167 267.167 C 138.439 267.167,139.515 267.110,139.558 267.042 C 139.600 266.973,138.524 266.917,137.167 266.917 C 135.809 266.917,134.733 266.973,134.776 267.042 M208.166 267.042 C 208.167 267.110,209.348 267.153,210.792 267.136 C 213.472 267.104,213.160 267.039,209.958 266.960 C 208.972 266.936,208.166 266.973,208.166 267.042 M247.667 267.000 L 245.083 267.097 247.708 267.132 C 249.371 267.154,250.333 267.106,250.333 267.000 C 250.333 266.908,250.315 266.849,250.292 266.868 C 250.269 266.888,249.088 266.947,247.667 267.000 M69.167 322.052 C 69.167 322.081,69.410 322.325,69.708 322.594 L 70.250 323.083 69.760 322.542 C 69.304 322.037,69.167 321.923,69.167 322.052 M330.158 322.625 L 329.583 323.250 330.208 322.676 C 330.552 322.360,330.833 322.078,330.833 322.051 C 330.833 321.923,330.692 322.043,330.158 322.625 M70.583 329.333 C 71.864 330.617,72.950 331.667,72.996 331.667 C 73.041 331.667,72.031 330.617,70.750 329.333 C 69.469 328.050,68.384 327.000,68.338 327.000 C 68.292 327.000,69.302 328.050,70.583 329.333 M329.331 329.292 L 327.417 331.250 329.375 329.336 C 330.452 328.283,331.333 327.402,331.333 327.378 C 331.333 327.258,331.108 327.473,329.331 329.292 M340.406 330.542 L 339.917 331.083 340.458 330.594 C 340.963 330.138,341.077 330.000,340.948 330.000 C 340.919 330.000,340.675 330.244,340.406 330.542 M64.333 335.583 C 65.752 337.004,66.950 338.167,66.996 338.167 C 67.042 338.167,65.919 337.004,64.500 335.583 C 63.081 334.162,61.883 333.000,61.837 333.000 C 61.792 333.000,62.915 334.162,64.333 335.583 M335.414 335.708 L 333.083 338.083 335.458 335.752 C 336.765 334.470,337.833 333.401,337.833 333.377 C 337.833 333.258,337.580 333.502,335.414 335.708 M75.000 333.552 C 75.000 333.581,75.244 333.825,75.542 334.094 L 76.083 334.583 75.594 334.042 C 75.138 333.537,75.000 333.423,75.000 333.552 M330.573 340.375 L 330.083 340.917 330.625 340.427 C 331.130 339.971,331.243 339.833,331.115 339.833 C 331.086 339.833,330.842 340.077,330.573 340.375 M194.458 378.784 C 194.665 378.824,195.002 378.824,195.208 378.784 C 195.415 378.745,195.246 378.712,194.833 378.712 C 194.421 378.712,194.252 378.745,194.458 378.784 M204.792 378.784 C 204.998 378.824,205.335 378.824,205.542 378.784 C 205.748 378.745,205.579 378.712,205.167 378.712 C 204.754 378.712,204.585 378.745,204.792 378.784 M193.127 382.785 C 193.334 382.824,193.634 382.823,193.794 382.781 C 193.953 382.739,193.783 382.707,193.417 382.709 C 193.050 382.711,192.920 382.745,193.127 382.785 M206.294 382.785 C 206.501 382.824,206.801 382.823,206.960 382.781 C 207.120 382.739,206.950 382.707,206.583 382.709 C 206.217 382.711,206.086 382.745,206.294 382.785 " stroke="none" fill="#92c4c5" fill-rule="evenodd"></path><path id="path4" d="M192.625 17.118 C 192.831 17.157,193.169 17.157,193.375 17.118 C 193.581 17.078,193.412 17.045,193.000 17.045 C 192.588 17.045,192.419 17.078,192.625 17.118 M206.625 17.118 C 206.831 17.157,207.169 17.157,207.375 17.118 C 207.581 17.078,207.412 17.045,207.000 17.045 C 206.588 17.045,206.419 17.078,206.625 17.118 M332.167 61.052 C 332.167 61.081,332.410 61.325,332.708 61.594 L 333.250 62.083 332.760 61.542 C 332.304 61.037,332.167 60.923,332.167 61.052 M338.000 66.885 C 338.000 66.914,338.244 67.158,338.542 67.427 L 339.083 67.917 338.594 67.375 C 338.138 66.870,338.000 66.757,338.000 66.885 M61.240 67.542 L 60.750 68.083 61.292 67.594 C 61.590 67.325,61.833 67.081,61.833 67.052 C 61.833 66.923,61.696 67.037,61.240 67.542 M72.573 68.542 L 72.083 69.083 72.625 68.594 C 73.130 68.138,73.243 68.000,73.115 68.000 C 73.086 68.000,72.842 68.244,72.573 68.542 M327.667 68.917 C 327.978 69.237,328.270 69.500,328.315 69.500 C 328.361 69.500,328.144 69.237,327.833 68.917 C 327.522 68.596,327.230 68.333,327.185 68.333 C 327.139 68.333,327.356 68.596,327.667 68.917 M74.824 72.125 L 74.250 72.750 74.875 72.176 C 75.219 71.860,75.500 71.578,75.500 71.551 C 75.500 71.423,75.359 71.543,74.824 72.125 M324.667 71.719 C 324.667 71.748,324.910 71.991,325.208 72.260 L 325.750 72.750 325.260 72.208 C 324.804 71.703,324.667 71.590,324.667 71.719 M331.083 72.333 C 331.441 72.700,331.772 73.000,331.818 73.000 C 331.863 73.000,331.608 72.700,331.250 72.333 C 330.892 71.967,330.562 71.667,330.516 71.667 C 330.470 71.667,330.725 71.967,331.083 72.333 M327.250 74.333 C 327.887 74.975,328.445 75.500,328.491 75.500 C 328.537 75.500,328.053 74.975,327.417 74.333 C 326.780 73.692,326.221 73.167,326.176 73.167 C 326.130 73.167,326.613 73.692,327.250 74.333 M71.909 75.042 L 71.250 75.750 71.958 75.091 C 72.617 74.478,72.743 74.333,72.617 74.333 C 72.590 74.333,72.271 74.652,71.909 75.042 M115.214 152.583 C 115.216 153.042,115.248 153.209,115.286 152.956 C 115.325 152.703,115.324 152.328,115.284 152.123 C 115.244 151.918,115.213 152.125,115.214 152.583 M120.906 165.542 L 120.417 166.083 120.958 165.594 C 121.256 165.325,121.500 165.081,121.500 165.052 C 121.500 164.923,121.362 165.037,120.906 165.542 M85.375 174.125 C 88.102 174.151,92.565 174.151,95.292 174.125 C 98.019 174.099,95.787 174.078,90.333 174.078 C 84.879 174.078,82.648 174.099,85.375 174.125 M17.045 193.500 C 17.045 193.912,17.078 194.081,17.118 193.875 C 17.157 193.669,17.157 193.331,17.118 193.125 C 17.078 192.919,17.045 193.088,17.045 193.500 M382.881 193.583 C 382.882 194.042,382.915 194.209,382.953 193.956 C 382.991 193.703,382.990 193.328,382.951 193.123 C 382.911 192.918,382.880 193.125,382.881 193.583 M391.712 197.333 C 391.712 197.746,391.745 197.915,391.784 197.708 C 391.824 197.502,391.824 197.165,391.784 196.958 C 391.745 196.752,391.712 196.921,391.712 197.333 M391.712 202.500 C 391.712 202.912,391.745 203.081,391.784 202.875 C 391.824 202.669,391.824 202.331,391.784 202.125 C 391.745 201.919,391.712 202.088,391.712 202.500 M8.205 203.333 C 8.205 203.654,8.240 203.785,8.282 203.625 C 8.323 203.465,8.323 203.202,8.282 203.042 C 8.240 202.881,8.205 203.012,8.205 203.333 M226.236 208.667 C 226.236 210.454,226.261 211.185,226.291 210.292 C 226.321 209.398,226.321 207.935,226.291 207.042 C 226.261 206.148,226.236 206.879,226.236 208.667 M382.881 206.250 C 382.882 206.708,382.915 206.876,382.953 206.623 C 382.991 206.369,382.990 205.994,382.951 205.789 C 382.911 205.584,382.880 205.792,382.881 206.250 M17.045 206.333 C 17.045 206.746,17.078 206.915,17.118 206.708 C 17.157 206.502,17.157 206.165,17.118 205.958 C 17.078 205.752,17.045 205.921,17.045 206.333 M102.893 239.667 C 102.893 240.537,102.922 240.894,102.956 240.458 C 102.990 240.023,102.990 239.310,102.956 238.875 C 102.922 238.440,102.893 238.796,102.893 239.667 M297.060 239.667 C 297.060 240.537,297.088 240.894,297.123 240.458 C 297.157 240.023,297.157 239.310,297.123 238.875 C 297.088 238.440,297.060 238.796,297.060 239.667 M80.244 254.958 L 102.821 255.001 102.879 256.501 L 102.937 258.001 102.927 256.459 L 102.917 254.917 80.292 254.916 L 57.667 254.915 80.244 254.958 M297.071 255.056 C 297.024 255.178,297.011 255.909,297.042 256.681 L 297.099 258.083 297.133 256.542 L 297.167 255.001 319.792 254.958 L 342.417 254.915 319.786 254.874 C 301.051 254.840,297.142 254.872,297.071 255.056 M222.083 257.288 C 232.466 257.404,240.461 257.405,240.391 257.292 C 240.348 257.223,235.312 257.184,229.198 257.205 C 223.085 257.226,219.883 257.264,222.083 257.288 M202.991 263.292 L 202.417 263.917 203.042 263.342 C 203.623 262.808,203.743 262.667,203.616 262.667 C 203.588 262.667,203.307 262.948,202.991 263.292 M332.406 326.208 L 331.917 326.750 332.458 326.260 C 332.963 325.804,333.077 325.667,332.948 325.667 C 332.919 325.667,332.675 325.910,332.406 326.208 M75.667 328.552 C 75.667 328.581,75.910 328.825,76.208 329.094 L 76.750 329.583 76.260 329.042 C 75.804 328.537,75.667 328.423,75.667 328.552 M196.460 378.785 C 196.668 378.824,196.968 378.823,197.127 378.781 C 197.286 378.739,197.117 378.707,196.750 378.709 C 196.383 378.711,196.253 378.745,196.460 378.785 M202.960 378.785 C 203.168 378.824,203.468 378.823,203.627 378.781 C 203.786 378.739,203.617 378.707,203.250 378.709 C 202.883 378.711,202.753 378.745,202.960 378.785 M191.627 382.785 C 191.834 382.824,192.134 382.823,192.294 382.781 C 192.453 382.739,192.283 382.707,191.917 382.709 C 191.550 382.711,191.420 382.745,191.627 382.785 M207.794 382.785 C 208.001 382.824,208.301 382.823,208.460 382.781 C 208.620 382.739,208.450 382.707,208.083 382.709 C 207.717 382.711,207.586 382.745,207.794 382.785 M197.214 382.957 C 197.745 382.990,198.570 382.990,199.048 382.956 C 199.526 382.922,199.092 382.895,198.083 382.896 C 197.075 382.896,196.684 382.924,197.214 382.957 M201.125 382.956 C 201.606 382.990,202.394 382.990,202.875 382.956 C 203.356 382.923,202.963 382.895,202.000 382.895 C 201.037 382.895,200.644 382.923,201.125 382.956 " stroke="none" fill="#5ba4ac" fill-rule="evenodd"></path></g></svg>